<svg xmlns="http://www.w3.org/2000/svg" width="24" height="24" fill="#3e2c2c" viewBox="0 0 24 24">
  <path d="M12 2C6.48 2 2 6.58 2 12.26c0 4.5 2.87 8.32 6.84 9.67.5.09.68-.22.68-.48 0-.24-.01-.87-.01-1.7-2.78.62-3.37-1.38-3.37-1.38-.45-1.17-1.1-1.48-1.1-1.48-.9-.63.07-.62.07-.62 1 .07 1.53 1.05 1.53 1.05.89 1.55 2.34 1.1 2.91.84.09-.66.35-1.1.63-1.35-2.22-.26-4.56-1.13-4.56-5a3.91 3.91 0 011.03-2.7 3.62 3.62 0 01.1-2.67s.84-.28 2.75 1.03a9.3 9.3 0 015 0c1.9-1.31 2.74-1.03 2.74-1.03.55 1.36.2 2.37.1 2.67a3.9 3.9 0 011.03 2.7c0 3.87-2.34 4.74-4.57 5 .36.31.68.92.68 1.85 0 1.34-.01 2.42-.01 2.75 0 .27.18.58.69.48A10.27 10.27 0 0022 12.26C22 6.58 17.52 2 12 2z"/>
</svg>